# xmcd
#
# Track frame offsets: 
#        150
#        19247
#        31861
#        46639
#        63089
#        85195
#        101478
#        117564
#        129723
#        153557
#        171623
#        175590
#        195551
#        209521
#
# Disc length: 3047 seconds
#
# Revision: 2
# Processed by: cddbd v1.5.2PL0 Copyright (c) Steve Scherf et al.
# Submitted via: ExactAudioCopy v1.0b1
#
DISCID=ba0be50e
DTITLE=гр.Контингент - Там, за рекой
DYEAR=2004
DGENRE=Vocal
TTITLE0=Там, за рекой
TTITLE1=Снова белый пух
TTITLE2=Дождь идёт в горах Афгана
TTITLE3=Разведчик
TTITLE4=Пленным
TTITLE5=Гроза
TTITLE6=Я вернусь
TTITLE7=До краёв
TTITLE8=На земле седой
TTITLE9=Пленник
TTITLE10=Простите нас советские солдаты
TTITLE11=Поклонная гора
TTITLE12=Память пройденной войны
TTITLE13=Южный крест
EXTD=
EXTT0=
EXTT1=
EXTT2=
EXTT3=
EXTT4=
EXTT5=
EXTT6=
EXTT7=
EXTT8=
EXTT9=
EXTT10=
EXTT11=
EXTT12=
EXTT13=
PLAYORDER=
